<svg width="33" height="17" viewBox="0 0 33 17" fill="none" xmlns="http://www.w3.org/2000/svg">
<g opacity="0.9">
<path d="M19.8086 0.599609C19.8849 0.607785 19.9585 0.615962 20.0348 0.626862C19.9612 0.615962 19.8849 0.607785 19.8086 0.599609Z" fill="#262626"/>
<path d="M24.5199 2.12014L24.1084 1.8994C24.0975 1.89395 24.0839 1.88578 24.073 1.88033C24.0294 1.85853 23.9858 1.83672 23.9422 1.81492C23.9695 1.82854 23.9994 1.84218 24.0294 1.8558C23.964 1.82037 23.8986 1.78767 23.8332 1.75224L23.5443 1.62143C23.5689 1.63233 23.5961 1.64596 23.6206 1.65686C23.2664 1.49335 22.9067 1.3462 22.536 1.21539C20.9527 0.842046 19.3204 0.686708 16.5107 0.640381C21.7185 0.896544 23.5062 1.64051 24.1057 1.89668C24.2447 1.96753 24.3837 2.04111 24.5199 2.12014Z" fill="#262626"/>
<path d="M20.375 0.474161C20.1706 0.425108 19.9662 0.376056 19.7918 0.337904L19.6828 0.316098C19.0833 0.220718 17.8924 0.408759 16.5107 0.645846C16.6306 0.629495 16.7478 0.615869 16.8677 0.602243C19.1541 0.340629 19.8163 0.384234 20.375 0.476889V0.474161Z" fill="#262626"/>
<path d="M18.6881 0.14723C18.5083 0.122704 18.2848 0.0981776 18.1104 0.0791016C18.1104 0.0791016 18.105 0.0791016 18.1022 0.0791016C18.0695 0.087277 18.0641 0.0900041 16.5107 0.643208C18.3148 0.163583 18.4919 0.160856 18.7345 0.155405C18.7208 0.155405 18.7045 0.152683 18.6881 0.149958V0.14723Z" fill="#262626"/>
<path d="M17.3285 0.043595C17.304 0.0354196 17.274 0.0245256 17.2495 0.0163502C17.2495 0.0163502 17.2467 0.0163502 17.244 0.0163502C17.0751 0.00817477 16.9715 0.00544729 16.9606 0.00544729C16.8652 0.00544729 16.7453 0 16.6445 0C16.8352 0.00817543 16.8407 0.0136234 16.9279 0.125354C16.8916 0.256161 16.7535 0.428752 16.5137 0.64313C17.2794 0.218008 17.304 0.13625 17.3312 0.043595H17.3285Z" fill="#262626"/>
<path d="M16.0561 0.125362C16.4267 0.264344 16.4458 0.346097 16.5112 0.643137C16.781 0.0354301 16.2196 0.0245329 15.7237 0.0163574C15.5493 0.0245329 15.3176 0.0408794 15.1459 0.0545051L14.9824 0.0681358C15.2359 0.051785 15.7645 0.0163558 16.0561 0.125362Z" fill="#262626"/>
<path d="M16.1434 32.5873C16.206 32.5873 16.266 32.5901 16.3287 32.5901H16.3559C16.3559 32.5901 16.3777 32.5901 16.3859 32.5901C16.4567 32.5901 16.5249 32.5901 16.5957 32.5901C16.6557 32.5901 16.7156 32.5901 16.7674 32.5901C16.7701 32.5901 16.7729 32.5901 16.7756 32.5901C15.5384 32.5683 -2.16417 25.859 0.697236 12.2278C0.697236 12.2278 0.697236 12.2278 0.697236 12.2305C0.599131 12.6147 0.503751 13.1325 0.421996 13.5195C0.342967 14.0155 0.277564 14.6831 0.223061 15.1818C-0.0685297 27.4096 14.5246 32.432 16.1434 32.5873Z" fill="#262626"/>
<path d="M13.4749 0.283462C13.4422 0.288912 13.4067 0.29709 13.374 0.30254C15.3661 -0.0381029 16.1973 0.452423 16.5134 0.643183C15.9493 0.0218503 14.9682 0.0327488 13.4776 0.283462H13.4749Z" fill="#262626"/>
<path d="M2.2883 8.28706C-4.90335 22.1526 15.2409 31.9413 17.6499 32.549C17.6663 32.549 17.6826 32.549 17.699 32.5463L17.8053 32.5381C17.8216 32.5381 17.838 32.5354 17.857 32.5327C17.9797 32.5218 18.1268 32.5054 18.2522 32.4945C18.2685 32.4945 18.2849 32.4918 18.2985 32.4891C15.4453 30.3199 11.9735 29.1371 9.22379 26.8044C7.87757 25.6626 4.72458 22.9892 2.88238 19.4138C-0.804735 12.2603 2.47634 7.69843 4.0869 5.73633C4.02967 5.80173 3.97517 5.86713 3.92066 5.92981L3.64815 6.2541C3.22303 6.84001 2.68617 7.64393 2.30193 8.26253C2.29648 8.27071 2.29375 8.27888 2.2883 8.28706Z" fill="#262626"/>
<path d="M12.7401 0.438624C12.7401 0.438624 12.7592 0.433174 12.7701 0.430449C12.7455 0.4359 12.7156 0.441349 12.6938 0.4468C12.5139 0.487677 12.2795 0.550354 12.1024 0.599407C11.7372 0.700237 11.2549 0.850121 10.9006 0.983653C10.6826 1.06541 10.3937 1.17441 10.1812 1.26434C9.92502 1.37335 9.58983 1.53141 9.33639 1.64859C9.0775 1.7685 8.74231 1.94563 8.49705 2.09006C8.20818 2.25902 7.85119 2.47975 7.53507 2.68414C4.27852 4.92421 1.70871 8.51867 2.06298 12.571C2.90232 22.1308 13.7293 28.6875 17.8034 31.1564C18.7445 31.7269 19.2423 32.123 19.2968 32.3446C19.2968 32.3446 19.3159 32.3419 19.324 32.3392C19.5475 32.2983 19.8282 32.2383 20.0517 32.192C20.0598 32.192 20.068 32.1893 20.0762 32.1865C20.1552 32.1593 20.2124 32.0448 20.2669 31.9794C20.0816 31.6224 19.7192 31.3663 17.7598 30.0827C12.7183 26.7799 7.64407 22.981 4.68184 17.5989C-2.00293 5.44744 10.9606 -0.839471 16.5144 0.640282C15.438 0.223335 14.1272 0.177008 12.7428 0.435897L12.7401 0.438624Z" fill="#262626"/>
<path d="M18.3748 28.7258C21.4433 30.895 22.1736 31.4101 21.2035 31.8897C21.2144 31.887 21.2253 31.8842 21.2334 31.8815C21.3833 31.8352 21.5523 31.778 21.7185 31.7235C21.833 31.6853 21.9447 31.6444 22.0564 31.6036C23.4299 30.9659 22.2336 30.0829 19.3722 27.9764C16.2083 25.6464 12.2677 22.7468 8.92668 18.5065C-0.938339 5.9872 9.59162 -0.209776 16.508 0.643194C8.64872 -1.06002 -8.26353 9.90596 18.372 28.7258H18.3748Z" fill="#262626"/>
<path d="M20.1793 26.2894C23.7574 29.0337 25.0982 30.061 23.3214 31.0857C23.335 31.0802 23.3487 31.0721 23.3623 31.0666C23.6593 30.9249 24.03 30.7287 24.3161 30.5843C25.7005 29.7749 25.1473 28.8347 24.3433 27.9409C20.9778 24.1993 16.5086 21.7194 13.0612 18.0704C1.96719 6.32504 9.40956 0.482328 16.5113 0.645837C9.2733 -0.0136479 -3.64933 8.02007 20.1793 26.2922V26.2894Z" fill="#262626"/>
<path d="M22.9448 24.0196C26.3539 26.7502 27.5694 28.219 25.749 29.6961C26.0596 29.4781 26.4548 29.1674 26.7654 28.9303C26.9208 28.8022 27.0843 28.6632 27.2396 28.5242C28.654 27.2298 27.8609 26.5294 18.3447 18.1469C4.55007 5.99821 10.7661 1.70883 15.2626 0.812256C11.1858 1.57257 -0.183507 5.4886 22.9448 24.0196Z" fill="#262626"/>
<path d="M16.329 0.656738C15.9938 0.686715 15.6341 0.738495 15.2607 0.812073C15.7404 0.722144 16.1164 0.675814 16.329 0.656738Z" fill="#262626"/>
<path d="M16.5117 0.643066C16.5117 0.643066 16.4354 0.648513 16.3291 0.656689C16.3891 0.651239 16.4517 0.645792 16.5117 0.643066Z" fill="#262626"/>
<path d="M22.3098 18.6728C27.9645 23.2238 30.0873 25.3058 28.2479 27.5677C28.2615 27.5541 28.2724 27.5432 28.2833 27.5295C28.5722 27.2189 28.921 26.8074 29.1935 26.494C29.1989 26.4858 29.2044 26.4804 29.2099 26.4722C30.8204 24.3629 29.2807 22.1419 22.6423 16.9832C5.32124 3.52647 14.4968 1.01389 16.5134 0.645996C15.0446 0.831306 2.72962 2.91604 22.3125 18.6728H22.3098Z" fill="#262626"/>
<path d="M23.479 15.0317C29.8777 19.8116 31.6381 22.2561 30.4418 24.7006C30.4908 24.6188 30.5372 24.5398 30.5835 24.4607L30.6271 24.3844C30.6598 24.3272 30.6898 24.2754 30.7197 24.2237L31.0849 23.5206C31.1285 23.4306 31.1721 23.3407 31.2157 23.2535C32.6437 19.9779 27.2316 16.0373 23.6398 13.4239C11.9353 4.90784 13.3033 1.77665 16.5108 0.648438C13.7721 1.36243 8.96491 4.19658 23.479 15.0372V15.0317Z" fill="#262626"/>
<path d="M23.7897 11.3202C29.3762 15.2553 32.7227 17.8878 32.0278 21.1716C32.0605 21.0598 32.0959 20.9481 32.1259 20.8391C32.2376 20.4303 32.3494 19.9698 32.4393 19.6019C32.9189 16.329 29.5398 13.8328 23.9886 10.0366C20.3206 7.52678 13.4941 2.85588 16.5108 0.643066C11.78 2.85861 20.8193 9.22727 23.7897 11.3202Z" fill="#262626"/>
<path d="M24.2016 8.42628C30.4967 12.5113 32.6359 14.3644 32.7503 17.1767C32.7531 17.1222 32.7585 17.065 32.7612 17.0105L32.7803 16.3237L32.764 15.6588C32.7612 15.5825 32.7585 15.5089 32.7531 15.4326C32.5105 12.4813 28.5782 10.0477 23.6048 6.97378C20.1057 4.81274 16.1406 2.36011 16.5139 0.645996C14.8761 2.37919 20.4899 6.01998 24.2043 8.42901L24.2016 8.42628Z" fill="#262626"/>
<path d="M23.7923 5.81831C29.5914 9.11029 31.7743 10.71 32.4692 13.1217C32.382 12.7048 32.2403 12.1761 32.1231 11.7292C32.0958 11.6365 32.0686 11.5466 32.0413 11.4539C31.0984 9.00129 27.94 7.24084 22.4543 4.35764C18.5764 2.31651 17.2983 1.51804 16.5107 0.645996C16.9631 1.94316 19.8272 3.57007 23.7923 5.82104V5.81831Z" fill="#262626"/>
<path d="M31.2131 9.32538C31.1886 9.27633 31.1668 9.22727 31.1422 9.17822L30.8125 8.52691L30.5918 8.13721C30.5509 8.06636 30.51 7.99551 30.4664 7.92465C29.7197 6.76374 28.368 5.89987 26.4332 4.88612C23.2366 3.21288 19.8084 2.08739 16.5137 0.643066C17.5411 1.2971 19.4296 2.1637 21.8195 3.26193C28.1609 6.17511 30.1149 7.43413 31.2158 9.32538H31.2131Z" fill="#262626"/>
<path d="M29.2344 6.15604C29.2045 6.11788 29.1772 6.08518 29.1445 6.0443C29.1254 6.01978 29.1064 5.99797 29.0846 5.97345C29.06 5.94347 29.0355 5.9135 29.011 5.88352C28.7712 5.60556 28.5014 5.30306 28.2861 5.06052C26.869 3.60802 22.9067 2.12282 16.5107 0.643066C26.2123 3.5508 28.0899 4.91337 29.2344 6.15604Z" fill="#262626"/>
<path d="M26.5747 3.50991C26.3376 3.32733 26.0787 3.13657 25.8553 2.97306C25.8089 2.94036 25.7626 2.91039 25.7163 2.87769C24.1766 1.90754 21.0835 1.15539 16.5107 0.643066C19.3558 1.06546 24.4436 2.01926 26.7764 3.67343C26.7082 3.6162 26.6401 3.56169 26.5747 3.50991Z" fill="#262626"/>
<path d="M20.1188 0.640415C20.4976 0.692193 20.8737 0.760321 21.2389 0.844801C21.8902 0.953806 21.9719 0.978337 22.4679 1.13912C22.4543 1.13367 22.4379 1.1255 22.4243 1.12277C22.1763 1.02467 21.8384 0.910205 21.585 0.820275H21.5795C20.9827 0.62679 20.2823 0.602268 19.4702 0.569567C19.5084 0.572292 19.5438 0.577736 19.582 0.580461C19.1678 0.542309 18.7454 0.520508 18.3175 0.520508C17.6608 0.55321 17.5735 0.558666 16.5107 0.64587C18.2003 0.575017 18.9634 0.58864 20.1188 0.643143V0.640415ZM19.8054 0.602267C19.8817 0.610443 19.9553 0.61862 20.0316 0.62952C19.9581 0.61862 19.8817 0.610443 19.8054 0.602267Z" fill="#262626"/>
</g>
</svg>
