<svg width="51" height="26" viewBox="0 0 51 26" fill="none" xmlns="http://www.w3.org/2000/svg">
<g opacity="0.9">
<path d="M16.9735 23.9343C17.0325 23.9554 17.0957 23.9765 17.1589 24.0018C17.6058 24.1535 18.1622 24.3263 18.5879 24.457C19.0305 24.5835 19.6248 24.7226 20.0717 24.828C14.2589 23.4074 9.29757 20.225 5.33105 15.3606L6.44809 16.739C6.58719 16.8949 6.70943 17.034 6.82746 17.1605C7.24055 17.5904 7.72951 18.0878 8.22691 18.5684C8.53462 18.8508 8.9182 19.188 9.44932 19.6601C9.72331 19.8793 10.0437 20.1238 10.3725 20.3683C13.1924 22.4464 15.1188 23.2135 16.9777 23.9385L16.9735 23.9343Z" fill="#262626"/>
<path d="M2.01302 9.43413C6.63289 20.3431 18.2037 24.5204 22.2924 25.2075C22.3135 25.2075 22.3303 25.2117 22.3514 25.2159C22.5664 25.2412 22.8362 25.2707 23.0469 25.2918L23.4769 25.3297C23.4769 25.3297 23.4937 25.3297 23.498 25.3297C21.0869 25.1063 4.50421 20.2124 0.769531 5.15991C0.811683 5.38332 0.84962 5.60251 0.891773 5.80484C1.16998 6.85443 1.59571 8.22859 1.95401 9.27396C1.97508 9.32876 1.99616 9.37933 2.01302 9.43413Z" fill="#262626"/>
<path d="M24.9484 25.4057C25.0453 25.4057 25.138 25.4099 25.235 25.4099H25.2771C25.2771 25.4099 25.3109 25.4099 25.3235 25.4099C25.4331 25.4099 25.5385 25.4099 25.6481 25.4099C25.7408 25.4099 25.8335 25.4099 25.9136 25.4099C25.9179 25.4099 25.9221 25.4099 25.9263 25.4099C24.0126 25.3762 -3.36945 14.9983 1.05652 -6.08618C1.05652 -6.08618 1.05652 -6.08619 1.05652 -6.08198C0.904773 -5.48763 0.757241 -4.68674 0.630785 -4.08817C0.508543 -3.32101 0.407378 -2.28828 0.323074 -1.51689C-0.127954 17.3968 22.4445 25.1654 24.9484 25.4057Z" fill="#262626"/>
<path d="M3.51881 -12.1815C-7.60513 9.26549 23.5537 24.4065 27.28 25.3465C27.3053 25.3465 27.3306 25.3465 27.3558 25.3423L27.5202 25.3297C27.5455 25.3297 27.5708 25.3255 27.6003 25.3212C27.79 25.3044 28.0176 25.2791 28.2115 25.2622C28.2368 25.2622 28.2621 25.258 28.2832 25.2538C23.8699 21.8985 18.4997 20.0691 14.2465 16.4609C12.1642 14.6947 7.28721 10.5596 4.43773 5.02921C-1.26545 -6.03573 3.80966 -13.092 6.30085 -16.127C6.21234 -16.0258 6.12803 -15.9246 6.04373 -15.8277L5.62221 -15.3261C4.96463 -14.4198 4.13424 -13.1763 3.53989 -12.2195C3.53146 -12.2068 3.52724 -12.1942 3.51881 -12.1815Z" fill="#262626"/>
<path d="M19.683 -24.3215C19.683 -24.3215 19.7125 -24.3299 19.7294 -24.3342C19.6914 -24.3257 19.645 -24.3173 19.6113 -24.3089C19.3331 -24.2456 18.9706 -24.1487 18.6966 -24.0728C18.1318 -23.9169 17.3857 -23.685 16.8377 -23.4785C16.5005 -23.352 16.0537 -23.1834 15.7249 -23.0443C15.3287 -22.8757 14.8102 -22.6312 14.4182 -22.45C14.0177 -22.2645 13.4993 -21.9905 13.1199 -21.7671C12.6731 -21.5057 12.1209 -21.1643 11.6319 -20.8482C6.59475 -17.3833 2.6198 -11.8234 3.16778 -5.55538C4.46606 9.23159 21.2131 19.3734 27.5149 23.1924C28.9705 24.0748 29.7405 24.6874 29.8248 25.0302C29.8248 25.0302 29.8543 25.026 29.8669 25.0218C30.2126 24.9586 30.6468 24.8658 30.9924 24.7942C31.005 24.7942 31.0177 24.7899 31.0303 24.7857C31.1526 24.7436 31.2411 24.5665 31.3254 24.4654C31.0388 23.9132 30.4781 23.5169 27.4474 21.5316C19.6493 16.4227 11.8005 10.5467 7.2186 2.22169C-3.12132 -16.5739 16.9305 -26.2984 25.5211 -24.0096C23.856 -24.6545 21.8285 -24.7262 19.6872 -24.3257L19.683 -24.3215Z" fill="#262626"/>
<path d="M28.4008 19.4325C33.1472 22.7878 34.2768 23.5845 32.7762 24.3264C32.7931 24.3222 32.81 24.318 32.8226 24.3137C33.0544 24.2421 33.3158 24.1536 33.5729 24.0693C33.75 24.0102 33.9228 23.947 34.0956 23.8838C36.2201 22.8974 34.3696 21.5317 29.9436 18.2733C25.0497 14.6693 18.9546 10.1843 13.7867 3.62547C-1.47237 -15.7392 14.8152 -25.3246 25.5134 -24.0053C13.3567 -26.6398 -12.8029 -9.67775 28.3966 19.4325H28.4008Z" fill="#262626"/>
<path d="M31.191 15.664C36.7256 19.9087 38.7995 21.4978 36.0511 23.0828C36.0722 23.0743 36.0933 23.0617 36.1144 23.0533C36.5738 22.8341 37.1471 22.5306 37.5897 22.3072C39.731 21.0552 38.8753 19.601 37.6319 18.2184C32.4261 12.4309 25.5131 8.59507 20.1809 2.9509C3.02073 -15.2167 14.5325 -24.2541 25.5173 -24.0012C14.3217 -25.0213 -5.66682 -12.5948 31.191 15.6682V15.664Z" fill="#262626"/>
<path d="M35.4694 12.1529C40.7426 16.3765 42.6226 18.6485 39.8068 20.9332C40.2874 20.5959 40.8986 20.1154 41.3791 19.7487C41.6194 19.5506 41.8723 19.3356 42.1126 19.1206C44.3003 17.1184 43.0736 16.0351 28.3541 3.06909C7.01669 -15.7223 16.6316 -22.3571 23.5867 -23.7439C17.2807 -22.5679 -0.305133 -16.5106 35.4694 12.1529Z" fill="#262626"/>
<path d="M34.4874 3.88266C43.234 10.9221 46.5176 14.1425 43.6724 17.6411C43.6934 17.62 43.7103 17.6032 43.7272 17.5821C44.174 17.1016 44.7135 16.4651 45.135 15.9803C45.1435 15.9677 45.1519 15.9592 45.1603 15.9466C47.6515 12.684 45.2699 9.24862 35.0017 1.26922C8.20976 -19.5455 22.4024 -23.4319 25.5216 -24.001C23.2496 -23.7143 4.20109 -20.4897 34.4916 3.88266H34.4874Z" fill="#262626"/>
<path d="M36.2953 -1.74893C46.1926 5.64455 48.9157 9.42561 47.0652 13.2066C47.1411 13.0802 47.2127 12.958 47.2844 12.8357L47.3518 12.7177C47.4024 12.6292 47.4488 12.5491 47.4951 12.469L48.06 11.3815C48.1274 11.2424 48.1949 11.1033 48.2623 10.9684C50.4711 5.90169 42.0997 -0.193514 36.544 -4.2359C18.4397 -17.4084 20.5557 -22.2517 25.517 -23.9968C21.2807 -22.8924 13.8451 -18.5086 36.2953 -1.74049V-1.74893Z" fill="#262626"/>
<path d="M36.7765 -7.48992C45.4177 -1.40316 50.594 2.66874 49.5191 7.74807C49.5697 7.57525 49.6245 7.40244 49.6708 7.23383C49.8437 6.60154 50.0165 5.88917 50.1556 5.32012C50.8975 0.257645 45.6706 -3.60349 37.0842 -9.47529C31.4105 -13.3575 20.8514 -20.5824 25.5177 -24.0051C18.2 -20.5782 32.1819 -10.7272 36.7765 -7.48992Z" fill="#262626"/>
<path d="M37.4125 -11.9665C47.1497 -5.64794 50.4586 -2.78159 50.6356 1.56851C50.6399 1.4842 50.6483 1.39568 50.6525 1.31137L50.682 0.249144L50.6567 -0.779369C50.6525 -0.897396 50.6483 -1.01121 50.6399 -1.12924C50.2647 -5.69431 44.1821 -9.45849 36.4894 -14.2133C31.0771 -17.5559 24.9439 -21.3496 25.5214 -24.001C22.9881 -21.3201 31.6714 -15.6886 37.4167 -11.9623L37.4125 -11.9665Z" fill="#262626"/>
</g>
</svg>
