<svg width="156" height="34" viewBox="0 0 156 34" fill="none" xmlns="http://www.w3.org/2000/svg">
<path d="M9.91634 16.9999L16.9997 9.91658L24.083 16.9999L16.9997 24.0833L9.91634 16.9999Z" fill="#1A1A1A"/>
<path d="M31.1663 8.49992V16.9999L16.9997 2.83325H25.4997L31.1663 8.49992Z" fill="#1A1A1A"/>
<path d="M31.1663 25.4999V16.9999L16.9997 31.1666H25.4997L31.1663 25.4999Z" fill="#1A1A1A"/>
<path d="M2.83301 25.4999V16.9999L16.9997 31.1666H8.49967L2.83301 25.4999Z" fill="#1A1A1A"/>
<path d="M2.83301 8.49992V16.9999L16.9997 2.83325H8.49967L2.83301 8.49992Z" fill="#1A1A1A"/>
<path d="M39.6494 23.375V10.4833H41.7673V23.375H39.6494ZM41.1043 23.375V21.4412H47.8448V23.375H41.1043Z" fill="#262626"/>
<path d="M49.5172 23.375V14.535H51.543V23.375H49.5172ZM50.5301 12.9143C50.1863 12.9143 49.8978 12.7977 49.6645 12.5644C49.4435 12.3311 49.333 12.0426 49.333 11.6988C49.333 11.355 49.4435 11.0665 49.6645 10.8332C49.8978 10.6 50.1863 10.4833 50.5301 10.4833C50.8861 10.4833 51.1747 10.6 51.3957 10.8332C51.6167 11.0665 51.7272 11.355 51.7272 11.6988C51.7272 12.0426 51.6167 12.3311 51.3957 12.5644C51.1747 12.7977 50.8861 12.9143 50.5301 12.9143Z" fill="#262626"/>
<path d="M55.1596 23.375V10.8517H57.1854V23.375H55.1596ZM53.0416 16.3767V14.535H64.6441V16.3767H53.0416ZM60.5004 23.375V10.8517H62.5262V23.375H60.5004Z" fill="#262626"/>
<path d="M66.1169 23.375V10.115H68.1427V23.375H66.1169Z" fill="#262626"/>
<path d="M74.5042 23.5592C73.6203 23.5592 72.8222 23.3627 72.1101 22.9698C71.4103 22.5647 70.8516 22.0122 70.4342 21.3123C70.029 20.6125 69.8264 19.8267 69.8264 18.955C69.8264 18.0833 70.029 17.3036 70.4342 16.6161C70.8393 15.9162 71.3857 15.3637 72.0732 14.9586C72.7731 14.5534 73.5466 14.3508 74.3938 14.3508C75.2164 14.3508 75.9408 14.5411 76.5669 14.9217C77.2054 15.3024 77.7026 15.8242 78.0587 16.4872C78.427 17.1502 78.6112 17.9052 78.6112 18.7524C78.6112 18.8997 78.5989 19.0532 78.5743 19.2128C78.5621 19.3602 78.5375 19.5259 78.5007 19.7101H71.2445V18.0526H77.4509L76.6958 18.7156C76.6713 18.1754 76.5669 17.7211 76.3828 17.3527C76.1986 16.9844 75.9346 16.702 75.5908 16.5056C75.2593 16.3091 74.848 16.2109 74.3569 16.2109C73.8413 16.2109 73.3931 16.3214 73.0125 16.5424C72.6319 16.7634 72.3372 17.0765 72.1285 17.4817C71.9198 17.8745 71.8154 18.3472 71.8154 18.8997C71.8154 19.4522 71.9259 19.9372 72.1469 20.3547C72.3679 20.7721 72.681 21.0975 73.0862 21.3307C73.4913 21.5517 73.9579 21.6622 74.4858 21.6622C74.9401 21.6622 75.3576 21.5824 75.7382 21.4228C76.1311 21.2632 76.4626 21.0299 76.7327 20.723L78.0218 22.0306C77.5921 22.534 77.0703 22.9146 76.4564 23.1724C75.8425 23.4302 75.1918 23.5592 74.5042 23.5592Z" fill="#262626"/>
<path d="M84.1983 23.375V10.4833H86.3162V23.375H84.1983ZM85.6532 23.375V21.4412H92.3937V23.375H85.6532Z" fill="#262626"/>
<path d="M97.8488 23.5592C96.9648 23.5592 96.1668 23.3627 95.4547 22.9698C94.7548 22.5647 94.1962 22.0122 93.7787 21.3123C93.3736 20.6125 93.171 19.8267 93.171 18.955C93.171 18.0833 93.3736 17.3036 93.7787 16.6161C94.1839 15.9162 94.7303 15.3637 95.4178 14.9586C96.1177 14.5534 96.8912 14.3508 97.7383 14.3508C98.5609 14.3508 99.2853 14.5411 99.9115 14.9217C100.55 15.3024 101.047 15.8242 101.403 16.4872C101.772 17.1502 101.956 17.9052 101.956 18.7524C101.956 18.8997 101.943 19.0532 101.919 19.2128C101.907 19.3602 101.882 19.5259 101.845 19.7101H94.5891V18.0526H100.795L100.04 18.7156C100.016 18.1754 99.9115 17.7211 99.7273 17.3527C99.5432 16.9844 99.2792 16.702 98.9354 16.5056C98.6039 16.3091 98.1926 16.2109 97.7015 16.2109C97.1858 16.2109 96.7377 16.3214 96.3571 16.5424C95.9765 16.7634 95.6818 17.0765 95.4731 17.4817C95.2643 17.8745 95.16 18.3472 95.16 18.8997C95.16 19.4522 95.2705 19.9372 95.4915 20.3547C95.7125 20.7721 96.0256 21.0975 96.4307 21.3307C96.8359 21.5517 97.3025 21.6622 97.8304 21.6622C98.2847 21.6622 98.7021 21.5824 99.0827 21.4228C99.4756 21.2632 99.8071 21.0299 100.077 20.723L101.366 22.0306C100.937 22.534 100.415 22.9146 99.801 23.1724C99.1871 23.4302 98.5364 23.5592 97.8488 23.5592Z" fill="#262626"/>
<path d="M107.281 23.5592C106.483 23.5592 105.759 23.3566 105.108 22.9514C104.47 22.5462 103.96 21.9999 103.58 21.3123C103.211 20.6125 103.027 19.8329 103.027 18.9734C103.027 18.1017 103.211 17.322 103.58 16.6345C103.96 15.9347 104.47 15.3822 105.108 14.977C105.759 14.5595 106.483 14.3508 107.281 14.3508C107.957 14.3508 108.552 14.4982 109.068 14.7928C109.596 15.0752 110.013 15.4681 110.32 15.9715C110.627 16.4749 110.781 17.0458 110.781 17.6842V20.2257C110.781 20.8642 110.627 21.4351 110.32 21.9385C110.026 22.4419 109.614 22.8409 109.086 23.1356C108.558 23.418 107.957 23.5592 107.281 23.5592ZM107.613 21.6438C108.362 21.6438 108.964 21.3921 109.418 20.8887C109.884 20.3854 110.118 19.7408 110.118 18.955C110.118 18.427 110.013 17.9605 109.805 17.5553C109.596 17.1502 109.301 16.8371 108.921 16.6161C108.552 16.3828 108.116 16.2662 107.613 16.2662C107.122 16.2662 106.686 16.3828 106.305 16.6161C105.937 16.8371 105.642 17.1502 105.421 17.5553C105.213 17.9605 105.108 18.427 105.108 18.955C105.108 19.4829 105.213 19.9495 105.421 20.3547C105.642 20.7598 105.937 21.079 106.305 21.3123C106.686 21.5333 107.122 21.6438 107.613 21.6438ZM109.989 23.375V20.9992L110.339 18.8445L109.989 16.7082V14.535H112.015V23.375H109.989Z" fill="#262626"/>
<path d="M114.263 23.375V14.535H116.289V23.375H114.263ZM116.289 18.4577L115.589 18.1078C115.589 16.9905 115.834 16.0881 116.325 15.4006C116.829 14.7007 117.584 14.3508 118.591 14.3508C119.033 14.3508 119.432 14.4306 119.788 14.5902C120.144 14.7499 120.475 15.0077 120.782 15.3637L119.456 16.7266C119.297 16.5547 119.119 16.4319 118.922 16.3582C118.726 16.2846 118.499 16.2477 118.241 16.2477C117.676 16.2477 117.209 16.4258 116.841 16.7818C116.473 17.1379 116.289 17.6965 116.289 18.4577Z" fill="#262626"/>
<path d="M127.822 23.375V18.2736C127.822 17.6842 127.631 17.1993 127.251 16.8187C126.882 16.438 126.404 16.2477 125.814 16.2477C125.421 16.2477 125.071 16.3337 124.764 16.5056C124.458 16.6775 124.218 16.9169 124.046 17.2238C123.874 17.5308 123.788 17.8807 123.788 18.2736L122.996 17.8316C122.996 17.1563 123.144 16.5608 123.438 16.0452C123.733 15.5172 124.138 15.1059 124.654 14.8112C125.182 14.5043 125.771 14.3508 126.422 14.3508C127.085 14.3508 127.674 14.5227 128.19 14.8665C128.706 15.198 129.111 15.6339 129.405 16.1741C129.7 16.702 129.847 17.2545 129.847 17.8316V23.375H127.822ZM121.763 23.375V14.535H123.788V23.375H121.763Z" fill="#262626"/>
<path d="M136.013 23.5592C135.129 23.5592 134.331 23.3627 133.619 22.9698C132.919 22.5647 132.36 22.0122 131.943 21.3123C131.538 20.6125 131.335 19.8267 131.335 18.955C131.335 18.0833 131.538 17.3036 131.943 16.6161C132.348 15.9162 132.894 15.3637 133.582 14.9586C134.282 14.5534 135.055 14.3508 135.903 14.3508C136.725 14.3508 137.45 14.5411 138.076 14.9217C138.714 15.3024 139.211 15.8242 139.567 16.4872C139.936 17.1502 140.12 17.9052 140.12 18.7524C140.12 18.8997 140.108 19.0532 140.083 19.2128C140.071 19.3602 140.046 19.5259 140.009 19.7101H132.753V18.0526H138.96L138.205 18.7156C138.18 18.1754 138.076 17.7211 137.892 17.3527C137.707 16.9844 137.443 16.702 137.1 16.5056C136.768 16.3091 136.357 16.2109 135.866 16.2109C135.35 16.2109 134.902 16.3214 134.521 16.5424C134.141 16.7634 133.846 17.0765 133.637 17.4817C133.429 17.8745 133.324 18.3472 133.324 18.8997C133.324 19.4522 133.435 19.9372 133.656 20.3547C133.877 20.7721 134.19 21.0975 134.595 21.3307C135 21.5517 135.467 21.6622 135.995 21.6622C136.449 21.6622 136.866 21.5824 137.247 21.4228C137.64 21.2632 137.971 21.0299 138.241 20.723L139.531 22.0306C139.101 22.534 138.579 22.9146 137.965 23.1724C137.351 23.4302 136.701 23.5592 136.013 23.5592Z" fill="#262626"/>
<path d="M141.744 23.375V14.535H143.77V23.375H141.744ZM143.77 18.4577L143.07 18.1078C143.07 16.9905 143.315 16.0881 143.807 15.4006C144.31 14.7007 145.065 14.3508 146.072 14.3508C146.514 14.3508 146.913 14.4306 147.269 14.5902C147.625 14.7499 147.956 15.0077 148.263 15.3637L146.937 16.7266C146.778 16.5547 146.6 16.4319 146.403 16.3582C146.207 16.2846 145.98 16.2477 145.722 16.2477C145.157 16.2477 144.691 16.4258 144.322 16.7818C143.954 17.1379 143.77 17.6965 143.77 18.4577Z" fill="#262626"/>
<path d="M151.937 23.5592C151.446 23.5592 150.973 23.4978 150.519 23.375C150.065 23.2399 149.647 23.0558 149.267 22.8225C148.886 22.5769 148.555 22.2823 148.272 21.9385L149.562 20.6493C149.868 21.0054 150.218 21.2755 150.611 21.4597C151.016 21.6315 151.471 21.7175 151.974 21.7175C152.428 21.7175 152.772 21.65 153.005 21.5149C153.239 21.3799 153.355 21.1834 153.355 20.9256C153.355 20.6555 153.245 20.4467 153.024 20.2994C152.803 20.1521 152.514 20.0293 152.158 19.9311C151.814 19.8206 151.446 19.7101 151.053 19.5996C150.673 19.4891 150.304 19.3417 149.948 19.1576C149.604 18.9611 149.322 18.6972 149.101 18.3657C148.88 18.0342 148.77 17.6044 148.77 17.0765C148.77 16.5117 148.899 16.0267 149.156 15.6216C149.426 15.2164 149.801 14.9033 150.28 14.6823C150.771 14.4613 151.354 14.3508 152.029 14.3508C152.741 14.3508 153.368 14.4797 153.908 14.7376C154.46 14.9831 154.921 15.3576 155.289 15.861L154 17.1502C153.742 16.8309 153.447 16.5915 153.116 16.4319C152.784 16.2723 152.404 16.1925 151.974 16.1925C151.569 16.1925 151.256 16.2539 151.035 16.3767C150.814 16.4994 150.703 16.6775 150.703 16.9107C150.703 17.1563 150.814 17.3466 151.035 17.4817C151.256 17.6167 151.538 17.7334 151.882 17.8316C152.238 17.9298 152.606 18.0403 152.987 18.1631C153.38 18.2736 153.748 18.4332 154.092 18.6419C154.448 18.8384 154.737 19.1085 154.958 19.4522C155.179 19.7837 155.289 20.2196 155.289 20.7598C155.289 21.6193 154.988 22.3007 154.387 22.8041C153.785 23.3075 152.969 23.5592 151.937 23.5592Z" fill="#262626"/>
</svg>
